<svg xmlns="http://www.w3.org/2000/svg" xmlns:xlink="http://www.w3.org/1999/xlink" width="64" height="64"><defs><clipPath id="clip1"><path d="M0 0h64v64H0z"/></clipPath><clipPath id="clip2"><path d="M0 0h64v64H0z"/></clipPath><clipPath id="clip3"><path d="M0 0h64v64H0z"/></clipPath><clipPath id="clip4"><path d="M0 0h64v64H0z"/></clipPath><clipPath id="clip5"><path d="M0 0h64v64H0z"/></clipPath><clipPath id="clip6"><path d="M0 0h64v64H0z"/></clipPath><mask id="mask0"><g filter="url('#alpha')"><path d="M0 0h64v64H0z" style="fill:#000;fill-opacity:.603922;stroke:none"/></g></mask><mask id="mask1"><g filter="url('#alpha')"><path d="M0 0h64v64H0z" style="fill:#000;fill-opacity:.698039;stroke:none"/></g></mask><mask id="mask2"><g filter="url('#alpha')"><path d="M0 0h64v64H0z" style="fill:#000;fill-opacity:.658824;stroke:none"/></g></mask><mask id="mask3"><g filter="url('#alpha')"><path d="M0 0h64v64H0z" style="fill:#000;fill-opacity:.505882;stroke:none"/></g></mask><mask id="mask4"><g filter="url('#alpha')"><path d="M0 0h64v64H0z" style="fill:#000;fill-opacity:.627451;stroke:none"/></g></mask><mask id="mask5"><g filter="url('#alpha')"><path d="M0 0h64v64H0z" style="fill:#000;fill-opacity:.698039;stroke:none"/></g></mask><g id="surface5" clip-path="url('#clip1')"><path d="M26.5-.5h10q.13 1.493-1 2.5a16.2 16.2 0 0 1-8 0q-1.13-1.007-1-2.5m0 0" style="stroke:none;fill-rule:evenodd;fill:#fff;fill-opacity:1"/></g><g id="surface8" clip-path="url('#clip2')"><path d="M63.5 5.5v46q-1.185.421-2 1.5-12.5.5-25 1 5.082 3.798 7 9.5h-3a57.3 57.3 0 0 0-9-9 57.3 57.3 0 0 0-9 9h-3q1.918-5.702 7-9.5-12.5-.5-25-1-.815-1.079-2-1.5v-44q1.185-.421 2-1.5 27.997-.751 56-.5v3h-55a437 437 0 0 0 1 41.5q28 1.002 56 0A967 967 0 0 0 61 6.5q1.007-1.13 2.5-1m0 0" style="stroke:none;fill-rule:evenodd;fill:#fff;fill-opacity:1"/></g><g id="surface11" clip-path="url('#clip3')"><path d="M23.5 20.5h3v20h-3zm0 0" style="stroke:none;fill-rule:evenodd;fill:#fff;fill-opacity:1"/></g><g id="surface14" clip-path="url('#clip4')"><path d="M30.5 24.5q1.493-.13 2.5 1a49.2 49.2 0 0 1 0 14q-1.5 1.998-3 0-1.165-7.629.5-15m0 0" style="stroke:none;fill-rule:evenodd;fill:#fff;fill-opacity:1"/></g><g id="surface17" clip-path="url('#clip5')"><path d="M37.5 28.5q.925.166 1.5 1 .748 5.476.5 11h-3q-.394-6.153 1-12m0 0" style="stroke:none;fill-rule:evenodd;fill:#fff;fill-opacity:1"/></g><g id="surface20" clip-path="url('#clip6')"><path d="M6.5 43.5c16.672-.168 33.336 0 50 .5q.685.621 1 1.5a339 339 0 0 1-52 0q.543-1.027 1-2m0 0" style="stroke:none;fill-rule:evenodd;fill:#fff;fill-opacity:1"/></g><filter id="alpha" width="100%" height="100%" x="0%" y="0%" filterUnits="objectBoundingBox"><feColorMatrix in="SourceGraphic" values="0 0 0 0 1 0 0 0 0 1 0 0 0 0 1 0 0 0 1 0"/></filter></defs><g id="surface1"><use xlink:href="#surface5" mask="url('#mask0')"/><use xlink:href="#surface8" mask="url('#mask1')"/><use xlink:href="#surface11" mask="url('#mask2')"/><use xlink:href="#surface14" mask="url('#mask3')"/><use xlink:href="#surface17" mask="url('#mask4')"/><use xlink:href="#surface20" mask="url('#mask5')"/></g></svg>