<svg xmlns="http://www.w3.org/2000/svg" xmlns:xlink="http://www.w3.org/1999/xlink" width="64" height="64"><defs><clipPath id="clip1"><path d="M0 0h64v64H0z"/></clipPath><clipPath id="clip2"><path d="M0 0h64v64H0z"/></clipPath><mask id="mask0"><g filter="url('#alpha')"><path d="M0 0h64v64H0z" style="fill:#fff;fill-opacity:.741176;stroke:none"/></g></mask><mask id="mask1"><g filter="url('#alpha')"><path d="M0 0h64v64H0z" style="fill:#fff;fill-opacity:.792157;stroke:none"/></g></mask><g id="surface5" clip-path="url('#clip1')"><path d="M63.5 6.5v5q-2.835.303-4.5-2c-2.437 3.805-3.273 7.805-2.5 12q.094 2.971-2 5-4.5 1.998-9 0a48.7 48.7 0 0 1-9 3q-.515 8.379-8.5 6l-5 5q.053 5.296-2.5 10.5Q9.069 55.43 10 43.5c1.848-3.176 4.684-4.676 8.5-4.5l5.5-5.5q-1.166-13.946 12-8a38 38 0 0 0 6.5-2.5q1.815-8.066 10-9.5 1-2 2-4-2.474-.972-4-3 3.755-5.127 10-4.5a29 29 0 0 0 3 4.5m-15 13q2.771-.415 4 2-1.229 2.415-4 2zm-19 8q5.47 2.058.5 5-2.685-2.285-.5-5m-14 16q3.598 2.075.5 5c-2.887-1.672-3.05-3.336-.5-5m0 0" style="stroke:none;fill-rule:evenodd;fill:#fff;fill-opacity:1"/></g><g id="surface8" clip-path="url('#clip2')"><path d="M63.5 55.5v3h-57v3h-4v-3h-3v-3a45 45 0 0 0 2-1 626 626 0 0 0 1-50h4v50q28.617-.481 57 1m0 0" style="stroke:none;fill-rule:evenodd;fill:#fff;fill-opacity:1"/></g><filter id="alpha" width="100%" height="100%" x="0%" y="0%" filterUnits="objectBoundingBox"><feColorMatrix in="SourceGraphic" values="0 0 0 0 1 0 0 0 0 1 0 0 0 0 1 0 0 0 1 0"/></filter></defs><g id="surface1"><use xlink:href="#surface5" mask="url('#mask0')"/><use xlink:href="#surface8" mask="url('#mask1')"/></g></svg>