<?xml version="1.0" encoding="UTF-8"?>
<svg xmlns="http://www.w3.org/2000/svg" xmlns:xlink="http://www.w3.org/1999/xlink" width="64px"
  height="64px" viewBox="0 0 64 64" version="1.1">
  <defs>
    <filter id="alpha" filterUnits="objectBoundingBox" x="0%" y="0%" width="100%" height="100%">
      <feColorMatrix type="matrix" in="SourceGraphic"
        values="0 0 0 0 1 0 0 0 0 1 0 0 0 0 1 0 0 0 1 0" />
    </filter>
    <mask id="mask0">
      <g filter="url(#alpha)">
        <rect x="0" y="0" width="64" height="64"
          style="fill:white;fill-opacity:0.94902;stroke:none;" />
      </g>
    </mask>
    <clipPath id="clip1">
      <rect x="0" y="0" width="64" height="64" />
    </clipPath>
    <g id="surface5" clip-path="url(#clip1)">
      <path style=" stroke:none;fill-rule:evenodd;fill:white;fill-opacity:1;"
        d="M 31.4375 -0.0625 C 31.769531 -0.0625 32.105469 -0.0625 32.4375 -0.0625 C 32.523438 0.0351562 32.625 0.117188 32.75 0.1875 C 34.261719 3.171875 35.742188 6.171875 37.1875 9.1875 C 40.460938 9.785156 43.753906 10.304688 47.0625 10.75 C 47.894531 11.0625 48.125 11.625 47.75 12.4375 C 45.269531 14.75 42.875 17.148438 40.5625 19.625 C 41.097656 22.601562 41.621094 25.578125 42.125 28.5625 C 42.476562 30 41.957031 30.5625 40.5625 30.25 C 38.699219 29.285156 36.84375 28.308594 35 27.3125 C 34.9375 29.019531 34.917969 30.730469 34.9375 32.4375 C 38.640625 33.476562 40.808594 35.890625 41.4375 39.6875 C 42.855469 39.667969 44.273438 39.6875 45.6875 39.75 C 46.0625 39.800781 46.332031 39.988281 46.5 40.3125 C 46.5625 45.519531 46.582031 50.730469 46.5625 55.9375 C 50.371094 56.558594 52.496094 58.789062 52.9375 62.625 C 52.976562 63.199219 52.769531 63.636719 52.3125 63.9375 C 49.769531 63.9375 47.230469 63.9375 44.6875 63.9375 C 44.027344 63.292969 44.027344 62.644531 44.6875 62 C 46.6875 61.980469 48.6875 61.917969 50.6875 61.8125 C 50.066406 59.878906 48.773438 58.648438 46.8125 58.125 C 36.894531 58.042969 26.980469 58.042969 17.0625 58.125 C 15.101562 58.648438 13.808594 59.878906 13.1875 61.8125 C 22.6875 61.917969 32.1875 61.980469 41.6875 62 C 42.507812 62.652344 42.507812 63.296875 41.6875 63.9375 C 31.644531 63.9375 21.605469 63.9375 11.5625 63.9375 C 11.105469 63.636719 10.898438 63.199219 10.9375 62.625 C 11.378906 58.789062 13.503906 56.558594 17.3125 55.9375 C 17.292969 50.730469 17.3125 45.519531 17.375 40.3125 C 17.542969 39.988281 17.8125 39.800781 18.1875 39.75 C 19.601562 39.6875 21.019531 39.667969 22.4375 39.6875 C 23.066406 35.890625 25.234375 33.476562 28.9375 32.4375 C 28.957031 30.730469 28.9375 29.019531 28.875 27.3125 C 26.949219 28.347656 25.011719 29.371094 23.0625 30.375 C 22.613281 30.476562 22.214844 30.371094 21.875 30.0625 C 21.683594 29.578125 21.644531 29.078125 21.75 28.5625 C 22.253906 25.578125 22.777344 22.601562 23.3125 19.625 C 21 17.148438 18.605469 14.75 16.125 12.4375 C 15.75 11.625 15.980469 11.0625 16.8125 10.75 C 18.261719 10.476562 19.722656 10.308594 21.1875 10.25 C 21.777344 10.554688 21.964844 11.035156 21.75 11.6875 C 21.691406 11.867188 21.585938 12.011719 21.4375 12.125 C 20.773438 12.285156 20.105469 12.429688 19.4375 12.5625 C 21.402344 14.589844 23.378906 16.589844 25.375 18.5625 C 25.417969 18.777344 25.480469 18.984375 25.5625 19.1875 C 25.078125 21.765625 24.617188 24.347656 24.1875 26.9375 C 24.230469 27.0625 24.269531 27.1875 24.3125 27.3125 C 26.804688 25.921875 29.347656 24.628906 31.9375 23.4375 C 34.527344 24.628906 37.070312 25.921875 39.5625 27.3125 C 39.605469 27.1875 39.644531 27.0625 39.6875 26.9375 C 39.257812 24.347656 38.796875 21.765625 38.3125 19.1875 C 38.394531 18.984375 38.457031 18.777344 38.5 18.5625 C 40.496094 16.589844 42.472656 14.589844 44.4375 12.5625 C 41.589844 12.148438 38.757812 11.667969 35.9375 11.125 C 35.832031 11.019531 35.730469 10.917969 35.625 10.8125 C 34.394531 8.351562 33.164062 5.890625 31.9375 3.4375 C 30.710938 5.890625 29.480469 8.351562 28.25 10.8125 C 28.144531 10.917969 28.042969 11.019531 27.9375 11.125 C 26.960938 11.410156 25.960938 11.597656 24.9375 11.6875 C 24.324219 11.765625 23.929688 11.515625 23.75 10.9375 C 23.671875 10.460938 23.820312 10.066406 24.1875 9.75 C 25.03125 9.601562 25.863281 9.414062 26.6875 9.1875 C 28.132812 6.171875 29.613281 3.171875 31.125 0.1875 C 31.25 0.117188 31.351562 0.0351562 31.4375 -0.0625 Z M 31.8125 25.6875 C 32.128906 25.835938 32.441406 26 32.75 26.1875 C 32.8125 28.1875 32.832031 30.1875 32.8125 32.1875 C 32.230469 32.1875 31.644531 32.1875 31.0625 32.1875 C 31.042969 30.1875 31.0625 28.1875 31.125 26.1875 C 31.394531 26.0625 31.625 25.898438 31.8125 25.6875 Z M 29.9375 34.3125 C 31.273438 34.292969 32.605469 34.3125 33.9375 34.375 C 36.8125 34.980469 38.605469 36.710938 39.3125 39.5625 C 34.394531 39.730469 29.480469 39.730469 24.5625 39.5625 C 25.292969 36.707031 27.082031 34.957031 29.9375 34.3125 Z M 19.3125 41.8125 C 27.730469 41.8125 36.144531 41.8125 44.5625 41.8125 C 44.5625 46.519531 44.5625 51.230469 44.5625 55.9375 C 36.144531 55.9375 27.730469 55.9375 19.3125 55.9375 C 19.3125 51.230469 19.3125 46.519531 19.3125 41.8125 Z M 19.3125 41.8125 " />
    </g>
    <mask id="mask1">
      <g filter="url(#alpha)">
        <rect x="0" y="0" width="64" height="64"
          style="fill:rgb(0%,0%,0%);fill-opacity:0.92549;stroke:none;" />
      </g>
    </mask>
    <clipPath id="clip2">
      <rect x="0" y="0" width="64" height="64" />
    </clipPath>
    <g id="surface8" clip-path="url(#clip2)">
      <path style=" stroke:none;fill-rule:evenodd;fill:white;fill-opacity:1;"
        d="M 27.6875 12.8125 C 30.519531 12.792969 33.355469 12.8125 36.1875 12.875 C 36.855469 13.5 36.855469 14.125 36.1875 14.75 C 36.019531 14.792969 35.855469 14.832031 35.6875 14.875 C 33.1875 14.957031 30.6875 14.957031 28.1875 14.875 C 27.308594 14.703125 26.996094 14.179688 27.25 13.3125 C 27.421875 13.160156 27.566406 12.996094 27.6875 12.8125 Z M 27.6875 12.8125 " />
    </g>
    <mask id="mask2">
      <g filter="url(#alpha)">
        <rect x="0" y="0" width="64" height="64"
          style="fill:white;fill-opacity:0.921569;stroke:none;" />
      </g>
    </mask>
    <clipPath id="clip3">
      <rect x="0" y="0" width="64" height="64" />
    </clipPath>
    <g id="surface11" clip-path="url(#clip3)">
      <path style=" stroke:none;fill-rule:evenodd;fill:white;fill-opacity:1;"
        d="M 27.8125 16.3125 C 30.5625 16.292969 33.3125 16.3125 36.0625 16.375 C 36.632812 16.691406 36.820312 17.171875 36.625 17.8125 C 36.421875 18.101562 36.148438 18.289062 35.8125 18.375 C 33.230469 18.457031 30.644531 18.457031 28.0625 18.375 C 27.191406 18.082031 26.964844 17.519531 27.375 16.6875 C 27.519531 16.546875 27.664062 16.421875 27.8125 16.3125 Z M 27.8125 16.3125 " />
    </g>
    <mask id="mask3">
      <g filter="url(#alpha)">
        <rect x="0" y="0" width="64" height="64"
          style="fill:white;fill-opacity:0.921569;stroke:none;" />
      </g>
    </mask>
    <clipPath id="clip4">
      <rect x="0" y="0" width="64" height="64" />
    </clipPath>
    <g id="surface14" clip-path="url(#clip4)">
      <path style=" stroke:none;fill-rule:evenodd;fill:white;fill-opacity:1;"
        d="M 27.8125 19.8125 C 30.5625 19.792969 33.3125 19.8125 36.0625 19.875 C 36.632812 20.191406 36.820312 20.671875 36.625 21.3125 C 36.453125 21.636719 36.183594 21.824219 35.8125 21.875 C 33.230469 21.957031 30.644531 21.957031 28.0625 21.875 C 27.191406 21.589844 26.964844 21.027344 27.375 20.1875 C 27.519531 20.046875 27.664062 19.921875 27.8125 19.8125 Z M 27.8125 19.8125 " />
    </g>
    <mask id="mask4">
      <g filter="url(#alpha)">
        <rect x="0" y="0" width="64" height="64"
          style="fill:rgb(0%,0%,0%);fill-opacity:0.937255;stroke:none;" />
      </g>
    </mask>
    <clipPath id="clip5">
      <rect x="0" y="0" width="64" height="64" />
    </clipPath>
    <g id="surface17" clip-path="url(#clip5)">
      <path style=" stroke:none;fill-rule:evenodd;fill:white;fill-opacity:1;"
        d="M 21.8125 43.8125 C 23.230469 43.792969 24.648438 43.8125 26.0625 43.875 C 26.492188 44.066406 26.699219 44.398438 26.6875 44.875 C 26.710938 45.414062 26.460938 45.746094 25.9375 45.875 C 25.0625 45.9375 24.1875 45.957031 23.3125 45.9375 C 23.3125 47.894531 23.3125 49.855469 23.3125 51.8125 C 29.0625 51.8125 34.8125 51.8125 40.5625 51.8125 C 40.5625 49.855469 40.5625 47.894531 40.5625 45.9375 C 36.855469 45.957031 33.144531 45.9375 29.4375 45.875 C 28.625 45.539062 28.417969 44.976562 28.8125 44.1875 C 28.9375 44.082031 29.0625 43.980469 29.1875 43.875 C 33.574219 43.75 37.949219 43.792969 42.3125 44 C 42.460938 44.113281 42.566406 44.257812 42.625 44.4375 C 42.707031 47.394531 42.707031 50.355469 42.625 53.3125 C 42.519531 53.582031 42.332031 53.769531 42.0625 53.875 C 35.3125 53.957031 28.5625 53.957031 21.8125 53.875 C 21.542969 53.769531 21.355469 53.582031 21.25 53.3125 C 21.167969 50.355469 21.167969 47.394531 21.25 44.4375 C 21.378906 44.164062 21.566406 43.957031 21.8125 43.8125 Z M 21.8125 43.8125 " />
    </g>
  </defs>
  <g id="surface1">
    <use xlink:href="#surface5" mask="url(#mask0)" />
    <use xlink:href="#surface8" mask="url(#mask1)" />
    <use xlink:href="#surface11" mask="url(#mask2)" />
    <use xlink:href="#surface14" mask="url(#mask3)" />
    <use xlink:href="#surface17" mask="url(#mask4)" />
  </g>
</svg>