<?xml version="1.0" encoding="UTF-8"?>
<svg xmlns="http://www.w3.org/2000/svg" xmlns:xlink="http://www.w3.org/1999/xlink" width="64px"
  height="64px" viewBox="0 0 64 64" version="1.1">
  <defs>
    <filter id="alpha" filterUnits="objectBoundingBox" x="0%" y="0%" width="100%" height="100%">
      <feColorMatrix type="matrix" in="SourceGraphic"
        values="0 0 0 0 1 0 0 0 0 1 0 0 0 0 1 0 0 0 1 0" />
    </filter>
    <mask id="mask0">
      <g filter="url(#alpha)">
        <rect x="0" y="0" width="64" height="64"
          style="fill:white;fill-opacity:0.94902;stroke:none;" />
      </g>
    </mask>
    <clipPath id="clip1">
      <rect x="0" y="0" width="64" height="64" />
    </clipPath>
    <g id="surface5" clip-path="url(#clip1)">
      <path style=" stroke:none;fill-rule:evenodd;fill:white;fill-opacity:1;"
        d="M 14.8125 -0.0625 C 15.980469 -0.0625 17.144531 -0.0625 18.3125 -0.0625 C 20.375 0.519531 21.894531 1.769531 22.875 3.6875 C 23.171875 4.453125 23.339844 5.242188 23.375 6.0625 C 23.511719 8.074219 23.425781 10.074219 23.125 12.0625 C 22.9375 12.707031 22.667969 13.308594 22.3125 13.875 C 23.605469 13.980469 24.898438 13.957031 26.1875 13.8125 C 25.71875 13.132812 25.40625 12.382812 25.25 11.5625 C 25.167969 9.355469 25.167969 7.144531 25.25 4.9375 C 25.921875 2.285156 27.570312 0.617188 30.1875 -0.0625 C 31.355469 -0.0625 32.519531 -0.0625 33.6875 -0.0625 C 36.304688 0.617188 37.953125 2.285156 38.625 4.9375 C 38.707031 7.144531 38.707031 9.355469 38.625 11.5625 C 38.46875 12.382812 38.15625 13.132812 37.6875 13.8125 C 38.976562 13.957031 40.269531 13.980469 41.5625 13.875 C 40.90625 12.824219 40.550781 11.679688 40.5 10.4375 C 40.417969 8.980469 40.417969 7.519531 40.5 6.0625 C 40.65625 3.976562 41.550781 2.289062 43.1875 1 C 43.933594 0.511719 44.722656 0.160156 45.5625 -0.0625 C 46.730469 -0.0625 47.894531 -0.0625 49.0625 -0.0625 C 51.511719 0.589844 53.117188 2.132812 53.875 4.5625 C 54.078125 6.890625 54.117188 9.222656 54 11.5625 C 53.84375 12.382812 53.53125 13.132812 53.0625 13.8125 C 57.480469 14.417969 60.207031 16.875 61.25 21.1875 C 61.390625 23.832031 61.453125 26.476562 61.4375 29.125 C 61.453125 31.734375 61.390625 34.335938 61.25 36.9375 C 60.535156 39.339844 58.929688 40.589844 56.4375 40.6875 C 56.496094 47.316406 56.433594 53.941406 56.25 60.5625 C 55.738281 62.285156 54.636719 63.410156 52.9375 63.9375 C 51.769531 63.9375 50.605469 63.9375 49.4375 63.9375 C 48.652344 63.730469 47.941406 63.355469 47.3125 62.8125 C 46.644531 63.292969 45.933594 63.667969 45.1875 63.9375 C 44.019531 63.9375 42.855469 63.9375 41.6875 63.9375 C 40.945312 63.679688 40.257812 63.304688 39.625 62.8125 C 38.992188 63.304688 38.304688 63.679688 37.5625 63.9375 C 36.394531 63.9375 35.230469 63.9375 34.0625 63.9375 C 33.316406 63.667969 32.605469 63.292969 31.9375 62.8125 C 31.269531 63.292969 30.558594 63.667969 29.8125 63.9375 C 28.644531 63.9375 27.480469 63.9375 26.3125 63.9375 C 25.570312 63.679688 24.882812 63.304688 24.25 62.8125 C 23.617188 63.304688 22.929688 63.679688 22.1875 63.9375 C 21.019531 63.9375 19.855469 63.9375 18.6875 63.9375 C 17.941406 63.667969 17.230469 63.292969 16.5625 62.8125 C 15.933594 63.355469 15.222656 63.730469 14.4375 63.9375 C 13.269531 63.9375 12.105469 63.9375 10.9375 63.9375 C 9.238281 63.410156 8.136719 62.285156 7.625 60.5625 C 7.441406 53.941406 7.378906 47.316406 7.4375 40.6875 C 4.945312 40.589844 3.339844 39.339844 2.625 36.9375 C 2.484375 34.335938 2.421875 31.734375 2.4375 29.125 C 2.421875 26.476562 2.484375 23.832031 2.625 21.1875 C 3.667969 16.875 6.394531 14.417969 10.8125 13.8125 C 10.34375 13.132812 10.03125 12.382812 9.875 11.5625 C 9.757812 9.222656 9.796875 6.890625 10 4.5625 C 10.757812 2.132812 12.363281 0.589844 14.8125 -0.0625 Z M 15.4375 2.6875 C 16.664062 2.550781 17.832031 2.738281 18.9375 3.25 C 19.75 3.816406 20.273438 4.585938 20.5 5.5625 C 20.582031 7.394531 20.582031 9.230469 20.5 11.0625 C 19.75 13.21875 18.230469 14.15625 15.9375 13.875 C 14.167969 13.648438 13.066406 12.667969 12.625 10.9375 C 12.542969 9.144531 12.542969 7.355469 12.625 5.5625 C 13.042969 4.082031 13.980469 3.125 15.4375 2.6875 Z M 30.8125 2.6875 C 32.039062 2.550781 33.207031 2.738281 34.3125 3.25 C 35.125 3.816406 35.648438 4.585938 35.875 5.5625 C 35.957031 7.394531 35.957031 9.230469 35.875 11.0625 C 35.125 13.21875 33.605469 14.15625 31.3125 13.875 C 29.597656 13.660156 28.492188 12.722656 28 11.0625 C 27.917969 9.230469 27.917969 7.394531 28 5.5625 C 28.375 4.039062 29.3125 3.082031 30.8125 2.6875 Z M 46.1875 2.6875 C 48.707031 2.246094 50.394531 3.207031 51.25 5.5625 C 51.367188 7.527344 51.324219 9.484375 51.125 11.4375 C 50.257812 13.339844 48.78125 14.152344 46.6875 13.875 C 44.972656 13.660156 43.867188 12.722656 43.375 11.0625 C 43.292969 9.230469 43.292969 7.394531 43.375 5.5625 C 43.75 4.039062 44.6875 3.082031 46.1875 2.6875 Z M 10.6875 16.6875 C 13.855469 16.667969 17.019531 16.6875 20.1875 16.75 C 19.046875 17.96875 18.316406 19.40625 18 21.0625 C 17.859375 23.769531 17.796875 26.476562 17.8125 29.1875 C 17.816406 31.667969 17.855469 34.148438 17.9375 36.625 C 17.894531 36.769531 17.855469 36.917969 17.8125 37.0625 C 17.394531 37.269531 16.980469 37.480469 16.5625 37.6875 C 14.5 36.679688 12.460938 35.636719 10.4375 34.5625 C 10.332031 32.0625 10.269531 29.5625 10.25 27.0625 C 9.875 25.921875 9.148438 25.609375 8.0625 26.125 C 7.726562 26.398438 7.539062 26.753906 7.5 27.1875 C 7.4375 30.769531 7.417969 34.355469 7.4375 37.9375 C 6.402344 37.839844 5.714844 37.300781 5.375 36.3125 C 5.292969 31.4375 5.292969 26.5625 5.375 21.6875 C 6.082031 18.875 7.851562 17.210938 10.6875 16.6875 Z M 29.0625 16.6875 C 30.980469 16.644531 32.898438 16.6875 34.8125 16.8125 C 33.882812 18.378906 32.925781 19.921875 31.9375 21.4375 C 30.914062 19.894531 29.957031 18.308594 29.0625 16.6875 Z M 43.6875 16.8125 C 46.832031 16.667969 50 16.644531 53.1875 16.75 C 56.042969 17.230469 57.816406 18.878906 58.5 21.6875 C 58.582031 26.5625 58.582031 31.4375 58.5 36.3125 C 58.160156 37.300781 57.472656 37.839844 56.4375 37.9375 C 56.457031 34.355469 56.4375 30.769531 56.375 27.1875 C 56.25 26.394531 55.792969 25.9375 55 25.8125 C 54.230469 25.886719 53.769531 26.300781 53.625 27.0625 C 53.605469 29.5625 53.542969 32.0625 53.4375 34.5625 C 51.414062 35.636719 49.375 36.679688 47.3125 37.6875 C 46.894531 37.480469 46.480469 37.269531 46.0625 37.0625 C 46.125 31.734375 46.0625 26.398438 45.875 21.0625 C 45.570312 19.410156 44.839844 17.992188 43.6875 16.8125 Z M 25.4375 16.8125 C 25.585938 16.785156 25.710938 16.828125 25.8125 16.9375 C 27.53125 19.839844 29.320312 22.695312 31.1875 25.5 C 31.945312 25.828125 32.589844 25.683594 33.125 25.0625 C 34.773438 22.265625 36.480469 19.515625 38.25 16.8125 C 40.875 17.4375 42.5 19.0625 43.125 21.6875 C 43.207031 26.605469 43.207031 31.519531 43.125 36.4375 C 42.730469 37.351562 42.042969 37.851562 41.0625 37.9375 C 41.082031 34.355469 41.0625 30.769531 41 27.1875 C 40.671875 25.972656 39.941406 25.617188 38.8125 26.125 C 38.464844 26.34375 38.277344 26.65625 38.25 27.0625 C 38.230469 29.5625 38.167969 32.0625 38.0625 34.5625 C 36.039062 35.636719 34 36.679688 31.9375 37.6875 C 29.867188 36.660156 27.804688 35.621094 25.75 34.5625 C 25.746094 31.890625 25.660156 29.222656 25.5 26.5625 C 24.726562 25.6875 23.933594 25.648438 23.125 26.4375 C 23.003906 26.675781 22.921875 26.925781 22.875 27.1875 C 22.8125 30.769531 22.792969 34.355469 22.8125 37.9375 C 21.832031 37.851562 21.144531 37.351562 20.75 36.4375 C 20.667969 31.519531 20.667969 26.605469 20.75 21.6875 C 21.367188 19.132812 22.929688 17.507812 25.4375 16.8125 Z M 10.3125 37.6875 C 12.269531 38.667969 14.230469 39.644531 16.1875 40.625 C 16.574219 40.707031 16.949219 40.664062 17.3125 40.5 C 18.019531 40.144531 18.730469 39.792969 19.4375 39.4375 C 20.394531 40.300781 21.519531 40.714844 22.8125 40.6875 C 22.875 47.238281 22.8125 53.78125 22.625 60.3125 C 22.074219 61.066406 21.324219 61.359375 20.375 61.1875 C 19.390625 61.359375 18.640625 61.027344 18.125 60.1875 C 17.960938 54.902344 17.878906 49.609375 17.875 44.3125 C 17.414062 43.449219 16.726562 43.21875 15.8125 43.625 C 15.578125 43.816406 15.390625 44.046875 15.25 44.3125 C 15.207031 49.480469 15.167969 54.644531 15.125 59.8125 C 14.949219 60.445312 14.554688 60.882812 13.9375 61.125 C 13.011719 61.234375 12.09375 61.195312 11.1875 61 C 10.816406 60.714844 10.546875 60.359375 10.375 59.9375 C 10.3125 52.519531 10.292969 45.105469 10.3125 37.6875 Z M 25.6875 37.6875 C 27.496094 38.65625 29.332031 39.59375 31.1875 40.5 C 31.6875 40.75 32.1875 40.75 32.6875 40.5 C 34.492188 39.546875 36.304688 38.609375 38.125 37.6875 C 38.207031 45.105469 38.207031 52.519531 38.125 59.9375 C 37.988281 60.398438 37.71875 60.753906 37.3125 61 C 36.40625 61.195312 35.488281 61.234375 34.5625 61.125 C 33.945312 60.882812 33.550781 60.445312 33.375 59.8125 C 33.332031 54.644531 33.292969 49.480469 33.25 44.3125 C 32.777344 43.449219 32.089844 43.21875 31.1875 43.625 C 30.953125 43.816406 30.765625 44.046875 30.625 44.3125 C 30.621094 49.613281 30.539062 54.902344 30.375 60.1875 C 29.859375 61.027344 29.109375 61.359375 28.125 61.1875 C 27.175781 61.359375 26.425781 61.066406 25.875 60.3125 C 25.6875 52.777344 25.625 45.238281 25.6875 37.6875 Z M 53.4375 37.6875 C 53.582031 45.082031 53.605469 52.5 53.5 59.9375 C 53.269531 60.5 52.875 60.894531 52.3125 61.125 C 51.519531 61.207031 50.730469 61.207031 49.9375 61.125 C 49.320312 60.882812 48.925781 60.445312 48.75 59.8125 C 48.707031 54.644531 48.667969 49.480469 48.625 44.3125 C 48.046875 43.382812 47.277344 43.195312 46.3125 43.75 C 46.191406 43.925781 46.089844 44.113281 46 44.3125 C 45.996094 49.609375 45.914062 54.902344 45.75 60.1875 C 45.234375 61.027344 44.484375 61.359375 43.5 61.1875 C 42.550781 61.359375 41.800781 61.066406 41.25 60.3125 C 41.0625 53.78125 41 47.238281 41.0625 40.6875 C 42.355469 40.714844 43.480469 40.300781 44.4375 39.4375 C 45.144531 39.792969 45.855469 40.144531 46.5625 40.5 C 46.925781 40.664062 47.300781 40.707031 47.6875 40.625 C 49.628906 39.675781 51.542969 38.695312 53.4375 37.6875 Z M 53.4375 37.6875 " />
    </g>
    <mask id="mask1">
      <g filter="url(#alpha)">
        <rect x="0" y="0" width="64" height="64"
          style="fill:rgb(0%,0%,0%);fill-opacity:0.898039;stroke:none;" />
      </g>
    </mask>
    <clipPath id="clip2">
      <rect x="0" y="0" width="64" height="64" />
    </clipPath>
    <g id="surface8" clip-path="url(#clip2)">
      <path style=" stroke:none;fill-rule:evenodd;fill:white;fill-opacity:1;"
        d="M 31.5625 27.5625 C 32.851562 27.539062 33.414062 28.164062 33.25 29.4375 C 32.871094 30.199219 32.265625 30.472656 31.4375 30.25 C 30.675781 29.871094 30.402344 29.265625 30.625 28.4375 C 30.847656 28.027344 31.160156 27.738281 31.5625 27.5625 Z M 31.5625 27.5625 " />
    </g>
    <mask id="mask2">
      <g filter="url(#alpha)">
        <rect x="0" y="0" width="64" height="64"
          style="fill:rgb(0%,0%,0%);fill-opacity:0.898039;stroke:none;" />
      </g>
    </mask>
    <clipPath id="clip3">
      <rect x="0" y="0" width="64" height="64" />
    </clipPath>
    <g id="surface11" clip-path="url(#clip3)">
      <path style=" stroke:none;fill-rule:evenodd;fill:white;fill-opacity:1;"
        d="M 31.5625 32.0625 C 32.851562 32.039062 33.414062 32.664062 33.25 33.9375 C 32.871094 34.699219 32.265625 34.972656 31.4375 34.75 C 30.675781 34.371094 30.402344 33.765625 30.625 32.9375 C 30.847656 32.527344 31.160156 32.238281 31.5625 32.0625 Z M 31.5625 32.0625 " />
    </g>
  </defs>
  <g id="surface1">
    <use xlink:href="#surface5" mask="url(#mask0)" />
    <use xlink:href="#surface8" mask="url(#mask1)" />
    <use xlink:href="#surface11" mask="url(#mask2)" />
  </g>
</svg>