<?xml version="1.0" encoding="UTF-8"?>
<svg xmlns="http://www.w3.org/2000/svg" xmlns:xlink="http://www.w3.org/1999/xlink" width="64px"
  height="64px" viewBox="0 0 64 64" version="1.1">
  <defs>
    <filter id="alpha" filterUnits="objectBoundingBox" x="0%" y="0%" width="100%" height="100%">
      <feColorMatrix type="matrix" in="SourceGraphic"
        values="0 0 0 0 1 0 0 0 0 1 0 0 0 0 1 0 0 0 1 0" />
    </filter>
    <mask id="mask0">
      <g filter="url(#alpha)">
        <rect x="0" y="0" width="64" height="64"
          style="fill:rgb(0%,0%,0%);fill-opacity:0.717647;stroke:none;" />
      </g>
    </mask>
    <clipPath id="clip1">
      <rect x="0" y="0" width="64" height="64" />
    </clipPath>
    <g id="surface5" clip-path="url(#clip1)">
      <path style=" stroke:none;fill-rule:evenodd;fill:white;fill-opacity:1;"
        d="M 23.5 -0.5 C 28.832031 -0.5 34.167969 -0.5 39.5 -0.5 C 45.023438 1.265625 50.023438 4.097656 54.5 8 C 58.625 12.597656 61.625 17.765625 63.5 23.5 C 63.5 28.832031 63.5 34.167969 63.5 39.5 C 61.734375 45.023438 58.902344 50.023438 55 54.5 C 50.402344 58.625 45.234375 61.625 39.5 63.5 C 34.167969 63.5 28.832031 63.5 23.5 63.5 C 17.976562 61.734375 12.976562 58.902344 8.5 55 C 4.375 50.402344 1.375 45.234375 -0.5 39.5 C -0.5 34.167969 -0.5 28.832031 -0.5 23.5 C 1.265625 17.976562 4.097656 12.976562 8 8.5 C 12.597656 4.375 17.765625 1.375 23.5 -0.5 Z M 29.5 2.5 C 30.875 2.34375 32.207031 2.511719 33.5 3 C 31.375 4.121094 29.542969 5.621094 28 7.5 C 27.386719 5.503906 27.886719 3.839844 29.5 2.5 Z M 23.5 3.5 C 24.042969 3.558594 24.375 3.894531 24.5 4.5 C 23.230469 6.585938 22.230469 8.75 21.5 11 C 22.136719 14.292969 24.136719 15.292969 27.5 14 C 30.609375 10.214844 34.273438 7.214844 38.5 5 C 40.488281 4.820312 42.488281 4.984375 44.5 5.5 C 44.324219 7.859375 43.992188 10.195312 43.5 12.5 C 41.144531 12.335938 38.808594 12.503906 36.5 13 C 33.507812 15.992188 30.007812 18.15625 26 19.5 C 25.175781 21.699219 25.675781 23.535156 27.5 25 C 31.5 25.332031 35.5 25.667969 39.5 26 C 37.855469 27.65625 35.855469 28.488281 33.5 28.5 C 30.277344 27.636719 27.109375 26.636719 24 25.5 C 14.738281 31.035156 13.570312 37.871094 20.5 46 C 22.765625 46.234375 24.929688 46.734375 27 47.5 C 27.921875 50.101562 28.585938 52.769531 29 55.5 C 30.214844 57.046875 31.714844 58.214844 33.5 59 C 33.167969 59.332031 32.832031 59.667969 32.5 60 C 27.652344 60.078125 22.984375 59.078125 18.5 57 C 17.851562 53.804688 17.015625 50.636719 16 47.5 C 12.851562 44.683594 10.019531 41.515625 7.5 38 C 6.207031 37.511719 4.875 37.34375 3.5 37.5 C 3.679688 35.410156 3.347656 33.410156 2.5 31.5 C 5.511719 25.808594 9.679688 21.144531 15 17.5 C 15.175781 14.117188 15.675781 10.785156 16.5 7.5 C 18.90625 6.15625 21.238281 4.824219 23.5 3.5 Z M 47.5 31.5 C 45.566406 30.851562 43.566406 30.515625 41.5 30.5 C 43.332031 28.503906 43.832031 26.171875 43 23.5 C 40.070312 21.933594 36.902344 21.101562 33.5 21 C 34.832031 19.667969 36.167969 18.332031 37.5 17 C 40.703125 16.800781 43.703125 15.96875 46.5 14.5 C 47.308594 12.929688 47.644531 11.261719 47.5 9.5 C 49.902344 9.394531 51.738281 10.394531 53 12.5 C 55.101562 15.703125 56.933594 19.039062 58.5 22.5 C 57.46875 23.699219 56.636719 25.035156 56 26.5 C 54.0625 24.023438 51.894531 23.855469 49.5 26 C 47.84375 27.445312 47.179688 29.277344 47.5 31.5 Z M 6.5 18.5 C 7.75 16.066406 9.25 13.734375 11 11.5 C 11.792969 15.222656 10.292969 17.554688 6.5 18.5 Z M 45.5 36.5 C 50.804688 37.023438 53.136719 34.855469 52.5 30 C 54.832031 30.648438 57.164062 30.480469 59.5 29.5 C 59.59375 44.765625 52.257812 54.765625 37.5 59.5 C 37.167969 59.332031 36.832031 59.167969 36.5 59 C 38.332031 57.167969 40.167969 55.332031 42 53.5 C 41.734375 48.230469 43.234375 43.5625 46.5 39.5 C 45.871094 38.582031 45.539062 37.582031 45.5 36.5 Z M 41.5 30.5 C 38.882812 33.617188 38.882812 36.78125 41.5 40 C 39.085938 43.757812 37.917969 47.925781 38 52.5 C 35.976562 56.414062 34.144531 56.414062 32.5 52.5 C 32.644531 45.59375 29.3125 42.09375 22.5 42 C 18.535156 37.914062 18.867188 34.246094 23.5 31 C 27.160156 31.15625 30.828125 31.65625 34.5 32.5 C 37.109375 32.558594 39.441406 31.890625 41.5 30.5 Z M 7.5 45.5 C 5.726562 44.6875 5.226562 43.351562 6 41.5 C 6.792969 42.746094 7.292969 44.078125 7.5 45.5 Z M 7.5 45.5 C 8.90625 45.972656 9.574219 46.972656 9.5 48.5 C 8.09375 48.027344 7.425781 47.027344 7.5 45.5 Z M 9.5 48.5 C 12.472656 48.964844 13.640625 50.632812 13 53.5 C 11.199219 52.210938 10.03125 50.542969 9.5 48.5 Z M 9.5 48.5 " />
    </g>
  </defs>
  <g id="surface1">
    <use xlink:href="#surface5" mask="url(#mask0)" />
  </g>
</svg>