<?xml version="1.0" encoding="UTF-8"?>
<svg xmlns="http://www.w3.org/2000/svg" xmlns:xlink="http://www.w3.org/1999/xlink" width="64px"
  height="64px" viewBox="0 0 64 64" version="1.1">
  <defs>
    <filter id="alpha" filterUnits="objectBoundingBox" x="0%" y="0%" width="100%" height="100%">
      <feColorMatrix type="matrix" in="SourceGraphic"
        values="0 0 0 0 1 0 0 0 0 1 0 0 0 0 1 0 0 0 1 0" />
    </filter>
    <mask id="mask0">
      <g filter="url(#alpha)">
        <rect x="0" y="0" width="64" height="64"
          style="fill:white;fill-opacity:0.741176;stroke:none;" />
      </g>
    </mask>
    <clipPath id="clip1">
      <rect x="0" y="0" width="64" height="64" />
    </clipPath>
    <g id="surface5" clip-path="url(#clip1)">
      <path
        style=" stroke:none;fill-rule:evenodd;fill:white;fill-opacity:1;"
        d="M 63.5 6.5 C 63.5 8.167969 63.5 9.832031 63.5 11.5 C 61.609375 11.703125 60.109375 11.035156 59 9.5 C 56.5625 13.304688 55.726562 17.304688 56.5 21.5 C 56.5625 23.480469 55.894531 25.148438 54.5 26.5 C 51.5 27.832031 48.5 27.832031 45.5 26.5 C 42.574219 27.800781 39.574219 28.800781 36.5 29.5 C 36.15625 35.085938 33.324219 37.085938 28 35.5 C 26.332031 37.167969 24.667969 38.832031 23 40.5 C 23.035156 44.03125 22.203125 47.53125 20.5 51 C 12.878906 53.953125 9.378906 51.453125 10 43.5 C 11.847656 40.324219 14.683594 38.824219 18.5 39 C 20.332031 37.167969 22.167969 35.332031 24 33.5 C 23.222656 24.203125 27.222656 21.535156 36 25.5 C 38.246094 24.863281 40.410156 24.03125 42.5 23 C 43.710938 17.621094 47.042969 14.457031 52.5 13.5 C 53.167969 12.167969 53.832031 10.832031 54.5 9.5 C 52.851562 8.851562 51.515625 7.851562 50.5 6.5 C 53.003906 3.082031 56.335938 1.582031 60.5 2 C 61.398438 3.652344 62.398438 5.152344 63.5 6.5 Z M 48.5 19.5 C 50.347656 19.222656 51.679688 19.890625 52.5 21.5 C 51.679688 23.109375 50.347656 23.777344 48.5 23.5 C 48.5 22.167969 48.5 20.832031 48.5 19.5 Z M 29.5 27.5 C 33.148438 28.871094 33.3125 30.539062 30 32.5 C 28.210938 30.976562 28.042969 29.308594 29.5 27.5 Z M 15.5 43.5 C 17.898438 44.882812 18.066406 46.550781 16 48.5 C 13.113281 46.828125 12.949219 45.164062 15.5 43.5 Z M 15.5 43.5 " />
    </g>
    <mask id="mask1">
      <g filter="url(#alpha)">
        <rect x="0" y="0" width="64" height="64"
          style="fill:white;fill-opacity:0.792157;stroke:none;" />
      </g>
    </mask>
    <clipPath id="clip2">
      <rect x="0" y="0" width="64" height="64" />
    </clipPath>
    <g id="surface8" clip-path="url(#clip2)">
      <path
        style=" stroke:none;fill-rule:evenodd;fill:white;fill-opacity:1;"
        d="M 63.5 55.5 C 63.5 56.5 63.5 57.5 63.5 58.5 C 44.5 58.5 25.5 58.5 6.5 58.5 C 6.5 59.5 6.5 60.5 6.5 61.5 C 5.167969 61.5 3.832031 61.5 2.5 61.5 C 2.5 60.5 2.5 59.5 2.5 58.5 C 1.5 58.5 0.5 58.5 -0.5 58.5 C -0.5 57.5 -0.5 56.5 -0.5 55.5 C 0.148438 55.195312 0.816406 54.863281 1.5 54.5 C 2.5 37.847656 2.832031 21.179688 2.5 4.5 C 3.832031 4.5 5.167969 4.5 6.5 4.5 C 6.5 21.167969 6.5 37.832031 6.5 54.5 C 25.578125 54.179688 44.578125 54.511719 63.5 55.5 Z M 63.5 55.5 " />
    </g>
  </defs>
  <g id="surface1">
    <use xlink:href="#surface5" mask="url(#mask0)" />
    <use xlink:href="#surface8" mask="url(#mask1)" />
  </g>
</svg>