<svg xmlns="http://www.w3.org/2000/svg" xmlns:xlink="http://www.w3.org/1999/xlink" width="64" height="64"><defs><clipPath id="clip1"><path d="M0 0h64v64H0z"/></clipPath><clipPath id="clip2"><path d="M0 0h64v64H0z"/></clipPath><clipPath id="clip3"><path d="M0 0h64v64H0z"/></clipPath><mask id="mask0"><g filter="url('#alpha')"><path d="M0 0h64v64H0z" style="fill:#fff;fill-opacity:.94902;stroke:none"/></g></mask><mask id="mask1"><g filter="url('#alpha')"><path d="M0 0h64v64H0z" style="fill:#000;fill-opacity:.898039;stroke:none"/></g></mask><mask id="mask2"><g filter="url('#alpha')"><path d="M0 0h64v64H0z" style="fill:#000;fill-opacity:.898039;stroke:none"/></g></mask><g id="surface5" clip-path="url('#clip1')"><path d="M14.813-.062h3.5q3.093.873 4.562 3.75.447 1.146.5 2.375a27.5 27.5 0 0 1-.25 6 7.1 7.1 0 0 1-.812 1.812 20 20 0 0 0 3.875-.062 5.85 5.85 0 0 1-.938-2.25 89 89 0 0 1 0-6.626q1.01-3.979 4.938-5h3.5q3.927 1.021 4.937 5a89 89 0 0 1 0 6.626 5.85 5.85 0 0 1-.937 2.25 20 20 0 0 0 3.874.062 6.9 6.9 0 0 1-1.062-3.437 39 39 0 0 1 0-4.376Q40.732 2.935 43.188 1a8.1 8.1 0 0 1 2.374-1.062h3.5q3.675.979 4.813 4.625c.203 2.328.242 4.66.125 7a5.85 5.85 0 0 1-.937 2.25q6.624.907 8.187 7.374.21 3.967.188 7.938c.015 2.61-.047 5.21-.188 7.813q-1.073 3.603-4.812 3.75a544 544 0 0 1-.188 19.874c-.512 1.723-1.613 2.848-3.312 3.376h-3.5a5.3 5.3 0 0 1-2.126-1.126 8.7 8.7 0 0 1-2.124 1.126h-3.5a7.2 7.2 0 0 1-2.063-1.126 7.2 7.2 0 0 1-2.062 1.126h-3.5a8.7 8.7 0 0 1-2.126-1.126 8.7 8.7 0 0 1-2.125 1.126h-3.5a7.2 7.2 0 0 1-2.062-1.126 7.2 7.2 0 0 1-2.062 1.126h-3.5a8.7 8.7 0 0 1-2.125-1.126 5.3 5.3 0 0 1-2.125 1.126h-3.5c-1.7-.528-2.801-1.653-3.313-3.376a544 544 0 0 1-.187-19.874q-3.74-.147-4.813-3.75-.21-3.901-.187-7.813a135 135 0 0 1 .187-7.937q1.563-6.468 8.188-7.375a5.85 5.85 0 0 1-.938-2.25 51 51 0 0 1 .125-7Q11.137.917 14.813-.062m.624 2.75a6.5 6.5 0 0 1 3.5.562A3.77 3.77 0 0 1 20.5 5.563a62 62 0 0 1 0 5.5q-1.125 3.234-4.562 2.812-2.653-.341-3.313-2.937a59 59 0 0 1 0-5.376q.626-2.219 2.813-2.875m15.376 0a6.5 6.5 0 0 1 3.5.562 3.77 3.77 0 0 1 1.562 2.313 62 62 0 0 1 0 5.5q-1.124 3.234-4.562 2.812-2.573-.322-3.313-2.812a62 62 0 0 1 0-5.5q.563-2.285 2.813-2.875m15.375 0c2.519-.442 4.207.519 5.062 2.875a36.4 36.4 0 0 1-.125 5.875q-1.299 2.853-4.437 2.437-2.573-.322-3.313-2.812a62 62 0 0 1 0-5.5q.563-2.285 2.813-2.875m-35.5 14q4.75-.03 9.5.062A8.53 8.53 0 0 0 18 21.063q-.21 4.06-.187 8.125.003 3.72.125 7.437-.063.219-.125.438-.626.312-1.25.624a205 205 0 0 1-6.125-3.124q-.158-3.75-.188-7.5-.561-1.712-2.187-.938a1.5 1.5 0 0 0-.563 1.063 470 470 0 0 0-.062 10.75c-1.036-.098-1.723-.637-2.063-1.626q-.123-7.312 0-14.624 1.06-4.217 5.313-5m18.374 0q2.878-.063 5.75.125-1.394 2.35-2.874 4.625a68 68 0 0 1-2.875-4.75m14.625.125a120 120 0 0 1 9.5-.063c2.856.48 4.63 2.129 5.313 4.938q.123 7.313 0 14.625-.51 1.48-2.062 1.624.03-5.374-.063-10.75Q56.188 26 55 25.813q-1.156.11-1.375 1.25-.03 3.75-.187 7.5a205 205 0 0 1-6.126 3.126q-.624-.313-1.25-.626c.063-5.328 0-10.664-.187-16q-.458-2.479-2.187-4.25m-18.25 0a.39.39 0 0 1 .375.125 192 192 0 0 0 5.375 8.562q1.136.493 1.938-.437a206 206 0 0 1 5.125-8.25q3.938.938 4.875 4.875.123 7.374 0 14.75-.592 1.371-2.062 1.5.03-5.376-.063-10.75-.493-1.823-2.187-1.063a1.14 1.14 0 0 0-.563.938q-.03 3.75-.187 7.5a205 205 0 0 1-6.126 3.124 459 459 0 0 1-6.187-3.124q-.008-4.009-.25-8-1.16-1.311-2.375-.125a2.7 2.7 0 0 0-.25.75 470 470 0 0 0-.062 10.75q-1.471-.129-2.063-1.5a442 442 0 0 1 0-14.75q.926-3.832 4.688-4.875M10.313 37.688q2.938 1.469 5.876 2.937.579.123 1.125-.125 1.062-.531 2.125-1.062 1.436 1.293 3.375 1.25.094 9.826-.188 19.624-.825 1.132-2.25.876-1.476.258-2.25-1a524 524 0 0 1-.25-15.876q-.69-1.295-2.062-.687a2.2 2.2 0 0 0-.563.688q-.062 7.75-.125 15.5-.263.948-1.187 1.312-1.39.166-2.75-.125a2.5 2.5 0 0 1-.813-1.062q-.093-11.126-.062-22.25m15.376 0q2.714 1.453 5.5 2.812.75.375 1.5 0 2.707-1.43 5.437-2.812.123 11.124 0 22.25-.204.692-.812 1.062a8.3 8.3 0 0 1-2.75.125q-.925-.364-1.188-1.312-.062-7.75-.125-15.5-.71-1.296-2.062-.688a2.2 2.2 0 0 0-.563.688q-.005 7.949-.25 15.874-.774 1.259-2.25 1-1.425.258-2.25-.874a682 682 0 0 1-.187-22.626m27.75 0q.218 11.092.062 22.25a2.1 2.1 0 0 1-1.187 1.187q-1.188.123-2.376 0-.924-.364-1.187-1.312-.062-7.75-.125-15.5-.867-1.395-2.312-.563a3.6 3.6 0 0 0-.313.563 524 524 0 0 1-.25 15.874q-.774 1.259-2.25 1-1.425.258-2.25-.874a513 513 0 0 1-.187-19.626q1.938.044 3.374-1.25 1.063.532 2.126 1.063.545.247 1.124.125a189 189 0 0 0 5.75-2.937m0 0" style="stroke:none;fill-rule:evenodd;fill:#fff;fill-opacity:1"/></g><g id="surface8" clip-path="url('#clip2')"><path d="M31.563 27.563q1.933-.036 1.687 1.875c-.379.761-.984 1.035-1.812.812-.762-.379-1.036-.984-.813-1.812q.334-.614.938-.875m0 0" style="stroke:none;fill-rule:evenodd;fill:#fff;fill-opacity:1"/></g><g id="surface11" clip-path="url('#clip3')"><path d="M31.563 32.063q1.933-.036 1.687 1.874c-.379.762-.984 1.036-1.812.813-.762-.379-1.036-.984-.813-1.812q.334-.614.938-.876m0 0" style="stroke:none;fill-rule:evenodd;fill:#fff;fill-opacity:1"/></g><filter id="alpha" width="100%" height="100%" x="0%" y="0%" filterUnits="objectBoundingBox"><feColorMatrix in="SourceGraphic" values="0 0 0 0 1 0 0 0 0 1 0 0 0 0 1 0 0 0 1 0"/></filter></defs><g id="surface1"><use xlink:href="#surface5" mask="url('#mask0')"/><use xlink:href="#surface8" mask="url('#mask1')"/><use xlink:href="#surface11" mask="url('#mask2')"/></g></svg>