<svg xmlns="http://www.w3.org/2000/svg" xmlns:xlink="http://www.w3.org/1999/xlink" width="64" height="64"><defs><clipPath id="clip1"><path d="M0 0h64v64H0z"/></clipPath><clipPath id="clip2"><path d="M0 0h64v64H0z"/></clipPath><clipPath id="clip3"><path d="M0 0h64v64H0z"/></clipPath><clipPath id="clip4"><path d="M0 0h64v64H0z"/></clipPath><clipPath id="clip5"><path d="M0 0h64v64H0z"/></clipPath><mask id="mask0"><g filter="url('#alpha')"><path d="M0 0h64v64H0z" style="fill:#fff;fill-opacity:.94902;stroke:none"/></g></mask><mask id="mask1"><g filter="url('#alpha')"><path d="M0 0h64v64H0z" style="fill:#000;fill-opacity:.92549;stroke:none"/></g></mask><mask id="mask2"><g filter="url('#alpha')"><path d="M0 0h64v64H0z" style="fill:#fff;fill-opacity:.921569;stroke:none"/></g></mask><mask id="mask3"><g filter="url('#alpha')"><path d="M0 0h64v64H0z" style="fill:#fff;fill-opacity:.921569;stroke:none"/></g></mask><mask id="mask4"><g filter="url('#alpha')"><path d="M0 0h64v64H0z" style="fill:#000;fill-opacity:.937255;stroke:none"/></g></mask><g id="surface5" clip-path="url('#clip1')"><path d="M31.438-.062h1q.126.145.312.25a457 457 0 0 1 4.438 9q4.91.895 9.874 1.562 1.25.469.688 1.688a147 147 0 0 0-7.187 7.187 854 854 0 0 1 1.562 8.938q.528 2.156-1.562 1.687A359 359 0 0 1 35 27.313a107 107 0 0 0-.062 5.125q5.555 1.556 6.5 7.25 2.127-.03 4.25.062.56.075.812.563.093 7.812.063 15.624 5.712.933 6.374 6.688.06.861-.624 1.313h-7.626q-.99-.969 0-1.938 3-.03 6-.187c-.62-1.934-1.914-3.165-3.874-3.688q-14.876-.123-29.75 0-2.943.786-3.875 3.688 14.25.157 28.5.187 1.23.977 0 1.938H11.561q-.685-.452-.624-1.313.661-5.755 6.374-6.687-.03-7.813.063-15.626.251-.486.813-.562a73 73 0 0 1 4.25-.062q.943-5.693 6.5-7.25.03-2.563-.063-5.126a373 373 0 0 1-5.812 3.063 1.26 1.26 0 0 1-1.188-.312 2.6 2.6 0 0 1-.125-1.5c.504-2.985 1.027-5.961 1.563-8.938a147 147 0 0 0-7.188-7.187q-.562-1.22.688-1.688 2.176-.41 4.375-.5.885.458.562 1.438a.9.9 0 0 1-.312.437q-.998.24-2 .438a391 391 0 0 0 5.937 6q.064.32.188.625c-.485 2.578-.946 5.16-1.375 7.75q.062.188.125.375a110 110 0 0 1 7.625-3.875 110 110 0 0 1 7.625 3.875l.124-.375q-.646-3.884-1.374-7.75.123-.304.187-.625a391 391 0 0 0 5.938-6q-4.271-.623-8.5-1.438l-.313-.312-3.687-7.376-3.688 7.376-.312.312q-1.465.428-3 .563-.92.117-1.188-.75-.115-.715.438-1.188a27 27 0 0 0 2.5-.562 457 457 0 0 1 4.437-9q.186-.105.313-.25m.375 25.75q.474.22.937.5.093 3 .063 6h-1.75q-.03-3 .062-6 .406-.186.688-.5m-1.875 8.625q2.002-.03 4 .062 4.312.909 5.374 5.188-7.374.25-14.75 0c.731-2.856 2.52-4.606 5.375-5.25m-10.625 7.5h25.25v14.124h-25.25zm0 0" style="stroke:none;fill-rule:evenodd;fill:#fff;fill-opacity:1"/></g><g id="surface8" clip-path="url('#clip2')"><path d="M27.688 12.813q4.25-.03 8.5.062 1 .938 0 1.875-.25.063-.5.125-3.75.123-7.5 0-1.32-.26-.938-1.562c.172-.153.316-.317.438-.5m0 0" style="stroke:none;fill-rule:evenodd;fill:#fff;fill-opacity:1"/></g><g id="surface11" clip-path="url('#clip3')"><path d="M27.813 16.313q4.125-.03 8.25.062.855.475.562 1.438c-.203.289-.477.476-.812.562q-3.876.123-7.75 0c-.872-.293-1.098-.855-.688-1.687q.217-.211.438-.375m0 0" style="stroke:none;fill-rule:evenodd;fill:#fff;fill-opacity:1"/></g><g id="surface14" clip-path="url('#clip4')"><path d="M27.813 19.813q4.125-.03 8.25.062.855.475.562 1.438a1.03 1.03 0 0 1-.812.562q-3.876.123-7.75 0c-.872-.285-1.098-.848-.688-1.687q.217-.211.438-.375m0 0" style="stroke:none;fill-rule:evenodd;fill:#fff;fill-opacity:1"/></g><g id="surface17" clip-path="url('#clip5')"><path d="M21.813 43.813q2.127-.03 4.25.062.643.286.625 1 .035.808-.75 1a28 28 0 0 1-2.625.063v5.874h17.25v-5.874q-5.563.03-11.126-.063-1.217-.504-.625-1.687.188-.157.375-.313A173 173 0 0 1 42.313 44a.9.9 0 0 1 .313.438q.123 4.437 0 8.874a.95.95 0 0 1-.562.563q-10.125.123-20.25 0a.95.95 0 0 1-.563-.562 160 160 0 0 1 0-8.876q.193-.409.563-.624m0 0" style="stroke:none;fill-rule:evenodd;fill:#fff;fill-opacity:1"/></g><filter id="alpha" width="100%" height="100%" x="0%" y="0%" filterUnits="objectBoundingBox"><feColorMatrix in="SourceGraphic" values="0 0 0 0 1 0 0 0 0 1 0 0 0 0 1 0 0 0 1 0"/></filter></defs><g id="surface1"><use xlink:href="#surface5" mask="url('#mask0')"/><use xlink:href="#surface8" mask="url('#mask1')"/><use xlink:href="#surface11" mask="url('#mask2')"/><use xlink:href="#surface14" mask="url('#mask3')"/><use xlink:href="#surface17" mask="url('#mask4')"/></g></svg>