<svg xmlns="http://www.w3.org/2000/svg" xmlns:xlink="http://www.w3.org/1999/xlink" width="64" height="64"><defs><clipPath id="clip1"><path d="M0 0h64v64H0z"/></clipPath><filter id="alpha" width="100%" height="100%" x="0%" y="0%" filterUnits="objectBoundingBox"><feColorMatrix in="SourceGraphic" values="0 0 0 0 1 0 0 0 0 1 0 0 0 0 1 0 0 0 1 0"/></filter><mask id="mask0"><g filter="url('#alpha')"><path d="M0 0h64v64H0z" style="fill:#000;fill-opacity:.717647;stroke:none"/></g></mask><g id="surface5" clip-path="url('#clip1')"><path d="M23.5-.5h16q8.284 2.648 15 8.5 6.188 6.898 9 15.5v16q-2.648 8.284-8.5 15-6.898 6.188-15.5 9h-16q-8.285-2.648-15-8.5-6.187-6.898-9-15.5v-16q2.648-8.285 8.5-15 6.898-6.187 15.5-9m6 3a8.46 8.46 0 0 1 4 .5A17.8 17.8 0 0 0 28 7.5q-.92-2.992 1.5-5m-6 1c.543.059.875.395 1 1a30.7 30.7 0 0 0-3 6.5q.956 4.94 6 3c3.11-3.785 6.773-6.785 11-9a17.6 17.6 0 0 1 6 .5 52 52 0 0 1-1 7 25 25 0 0 0-7 .5A26.6 26.6 0 0 1 26 19.5q-1.236 3.301 1.5 5.5 6 .5 12 1-2.468 2.483-6 2.5a112 112 0 0 1-9.5-3Q10.106 33.805 20.5 46c2.266.234 4.43.734 6.5 1.5a43.4 43.4 0 0 1 2 8 11.57 11.57 0 0 0 4.5 3.5l-1 1q-7.273.117-14-3a87 87 0 0 0-2.5-9.5A58 58 0 0 1 7.5 38a8.46 8.46 0 0 0-4-.5q.271-3.135-1-6 4.519-8.534 12.5-14a52 52 0 0 1 1.5-10 396 396 0 0 0 7-4m24 28a19.2 19.2 0 0 0-6-1q2.748-2.993 1.5-7-4.396-2.348-9.5-2.5l4-4q4.805-.298 9-2.5a9.1 9.1 0 0 0 1-5q3.605-.158 5.5 3a73 73 0 0 1 5.5 10 15.7 15.7 0 0 0-2.5 4q-2.906-3.716-6.5-.5-2.482 2.167-2 5.5m-41-13a44 44 0 0 1 4.5-7q1.19 5.584-4.5 7m39 18q7.956.784 7-6.5 3.497.971 7-.5c.094 15.266-7.242 25.266-22 30q-.5-.25-1-.5l5.5-5.5q-.399-7.905 4.5-14a5.57 5.57 0 0 1-1-3m-4-6c-2.617 3.117-2.617 6.281 0 9.5q-3.622 5.638-3.5 12.5-3.034 5.871-5.5 0 .218-10.359-10-10.5-5.948-6.13 1-11 5.491.234 11 1.5 3.913.087 7-2m-34 15c-1.773-.812-2.273-2.148-1.5-4a10.1 10.1 0 0 1 1.5 4m0 0q2.11.71 2 3-2.11-.71-2-3m2 3q4.46.699 3.5 5-2.702-1.935-3.5-5m0 0" style="stroke:none;fill-rule:evenodd;fill:#fff;fill-opacity:1"/></g></defs><use xlink:href="#surface5" id="surface1" mask="url('#mask0')"/></svg>